<?xml version="1.0" encoding="UTF-8"?><svg xmlns="http://www.w3.org/2000/svg" xmlns:xlink="http://www.w3.org/1999/xlink" viewBox="0 0 513 661"><defs><style>.cls-1{fill:#000;font-family:ShareTechMono-Regular, 'Share Tech Mono';font-size:84.69px;}.cls-2{fill:#f2527d;}.cls-2,.cls-3,.cls-4,.cls-5,.cls-6{stroke-width:0px;}.cls-7{clip-path:url(#clippath-2);}.cls-8{isolation:isolate;}.cls-3{fill:none;}.cls-9{clip-path:url(#clippath-1);}.cls-4{fill:#f29b30;}.cls-10{clip-path:url(#clippath);}.cls-5{fill:#2175bf;}.cls-6{fill:#fff;}</style><clipPath id="clippath"><polygon class="cls-3" points="296.93 436.17 296.46 270.77 424.53 196.83 425 362.23 296.93 436.17"/></clipPath><clipPath id="clippath-1"><polygon class="cls-3" points="128.7 135.58 256.16 61.51 384.46 135.58 257 209.65 128.7 135.58"/></clipPath><clipPath id="clippath-2"><polygon class="cls-3" points="85.42 352.99 85.86 199.32 218.13 275.68 217.69 429.36 85.42 352.99"/></clipPath></defs><g id="Cube"><polygon class="cls-4" points="465 135 256 256 48 135 256.4 15.62 465 135"/><polygon class="cls-2" points="256.44 255.14 256.43 494.63 47.96 374.27 47.97 134.78 256.44 255.14"/><polygon class="cls-5" points="464.87 134.78 464.86 374.28 256.43 494.63 256.44 255.14 464.87 134.78"/></g><g id="Logos"><g class="cls-8"><g class="cls-10"><polyline class="cls-6" points="404.61 287.06 397.85 290.96 397.87 298.72 404.63 294.82 404.61 287.06"/><path class="cls-6" d="M397.84,287.09l6.76-3.9-.02-7.76,3.38-1.95.02,7.76,6.75-3.9v3.87s-6.74,3.9-6.74,3.9l.02,7.76,6.75-3.9v3.88s-6.74,3.9-6.74,3.9l.02,7.75-3.38,1.95-.02-7.75-6.76,3.9.02,7.75-3.37,1.95-.02-7.75-6.75,3.9v-3.88s6.74-3.9,6.74-3.9l-.02-7.76-6.75,3.9v-3.87s6.74-3.9,6.74-3.9l-.02-7.76,3.37-1.95.02,7.76M361.22,371.01c-17.67,10.2-33.12,8.05-41.38-3.63l-.08-.12c-3.98-5.7-6.27-13.62-6.3-23.47-.09-30.21,21.16-67.01,47.45-82.18,17.55-10.13,32.91-8.06,41.21,3.42l-20.68,25.67c-4.1-5.59-11.6-6.63-20.19-1.78l-.27.15c-13.09,7.56-23.67,25.89-23.63,40.93.01,4.86,1.14,8.76,3.09,11.59l.08.12c4.11,5.84,11.81,6.93,20.62,1.85s16.45-15.02,20.51-25.55l20.73,1.82c-8.1,20.9-23.23,40.61-40.64,50.88l-.53.31M360.49,233.8c-2.31,1.33-4.61,3.46-6.93,6.38-6.77,8.52-40.68,50.5-50.79,63.09-4.16,5.18-6.18,10.59-6.16,16.11.06,22.72.13,45.43.19,68.16,0,2.72.51,4.84,1.51,6.35,1.03,1.54,2.6,2.42,4.72,2.61,10.15.89,44.19,3.64,50.99,4.32,2.34.24,4.64-.29,6.95-1.62s4.42-3.29,6.67-6.08c17.02-21.15,34.05-42.26,51.07-63.41,2.11-2.63,3.67-5.31,4.69-8.04.99-2.65,1.48-5.35,1.47-8.07,0,0-.13-45.42-.2-68.14,0-2.78-.53-4.94-1.59-6.45-1.03-1.48-2.58-2.33-4.65-2.51-17.08-1.45-34.18-2.86-51.26-4.33-2.25-.19-4.47.35-6.68,1.63"/></g></g><g class="cls-8"><g class="cls-9"><path class="cls-6" d="M215.01,119.68l10.23-5.95,44.85,25.9-10.23,5.95-16.1-9.29-45.54,26.46-12.74-7.36,45.54-26.46-16.01-9.24M243.95,178.55c1.6.92,3.13,1.64,4.61,2.16,1.47.52,2.86.87,4.16,1.03,1.31.17,2.5.16,3.58,0,1.08-.18,2.02-.49,2.83-.96,1.09-.63,1.75-1.38,1.99-2.24.22-.86.16-1.82-.2-2.86-.36-1.05-.94-2.2-1.76-3.45-.82-1.25-1.73-2.58-2.76-3.98-2.57-3.59-3.63-6.78-3.17-9.54.47-2.77,2.55-5.23,6.26-7.39,2.91-1.69,6-2.8,9.27-3.34,3.27-.54,6.59-.61,9.96-.23,3.38.39,6.71,1.16,10.02,2.34,3.3,1.16,6.45,2.61,9.42,4.33s5.35,3.3,7.26,4.8c1.91,1.51,3.45,3.02,4.63,4.55l-11.65,6.77c-.29-.92-.74-1.85-1.36-2.77-.62-.93-1.35-1.83-2.2-2.69s-1.79-1.68-2.79-2.44c-1-.76-2.03-1.45-3.08-2.05-1.44-.83-2.88-1.51-4.33-2.03-1.45-.52-2.83-.87-4.13-1.05-1.31-.18-2.52-.2-3.66-.06-1.13.14-2.12.46-2.98.96-.93.54-1.52,1.17-1.77,1.89-.24.72-.23,1.53.01,2.45.25.91.72,1.93,1.39,3.06.67,1.12,1.5,2.36,2.46,3.7,1.31,1.84,2.35,3.58,3.08,5.23.74,1.65,1.09,3.22,1.04,4.73-.04,1.51-.58,2.95-1.59,4.33-1.02,1.38-2.66,2.72-4.93,4.04-3.11,1.81-6.32,2.99-9.63,3.53-3.3.54-6.63.6-9.98.19-3.35-.41-6.66-1.24-9.94-2.47-3.27-1.23-6.42-2.71-9.42-4.45s-5.75-3.62-8.02-5.53c-2.27-1.91-3.9-3.76-4.9-5.54l12.46-7.24c.38,2.42,1.43,4.67,3.14,6.76,1.72,2.09,3.94,3.92,6.66,5.49M371.92,128.34l-103.23-59.6c-6.92-4-18.1-4-24.97,0l-102.56,59.6c-6.88,4-6.85,10.47.08,14.47l103.23,59.6c6.92,4,18.11,4,24.98,0l102.56-59.6c6.88-4,6.83-10.47-.09-14.47"/></g></g><g class="cls-8"><g class="cls-7"><path class="cls-6" d="M133.88,252.29c-3.31-1.91-5.98-6.57-5.97-10.42s2.7-5.46,6.01-3.55,5.98,6.6,5.97,10.46-2.71,5.41-6.01,3.5M151.67,237.32c-.16-.09-.32-.18-.47-.27-5.45-3.12-10.66-5.59-15.25-7.31-13.5-5.06-15.97-.73-16,9.84l-.04,13.98,31.9,18.42v4.66s-31.92-18.42-31.92-18.42l-11.98-6.92c-9.27-5.35-17.41-3.64-19.98,7.08-2.97,12.28-3.12,20.91-.11,37.26,2.24,12.16,7.63,23.02,16.9,28.37l10.98,6.34.05-16.75c.03-12.1,9.18-17.51,19.99-11.27l31.87,18.4c8.87,5.12,15.97.82,16-9.42l.1-34.91c.03-9.93-7.24-21.6-15.89-28.26-5.32-4.09-10.83-7.76-16.15-10.82"/><path class="cls-6" d="M169.43,389.36c-3.29-1.9-5.98-6.6-5.97-10.46s2.71-5.41,6.01-3.5,5.98,6.57,5.97,10.42-2.7,5.46-6.01,3.55M199.62,304.25l-11.98-6.92-.05,16.28c-.04,12.62-9.37,17.87-19.99,11.74l-31.87-18.4c-8.73-5.04-15.97-.62-16,9.42l-.1,34.91c-.03,9.93,7.47,20.12,15.9,27.84,5.25,4.81,10.4,8.8,15.83,11.94,5,2.89,10.25,5.05,16.05,6.46,8.04,1.97,15.97,1.16,16-9.42l.04-13.98-31.87-18.4v-4.66s31.88,18.4,31.88,18.4l15.96,9.21c9.27,5.35,12.75-.09,16-9.38,3.37-9.56,3.26-20.69.11-37.26-2.26-11.93-6.61-22.43-15.9-27.79"/></g></g><text class="cls-1" transform="translate(48 601.99) scale(1.01 1)"><tspan x="0" y="0">COMPAS_PB</tspan></text></g></svg>